<svg id="Слой_1" data-name="Слой 1" xmlns="http://www.w3.org/2000/svg" viewBox="0 0 512.01 512.02">
  <defs>
    <style>
      .cls-1 {
        fill: #7ab36b;
      }
    </style>
  </defs>
  <path class="cls-1" d="M393.5,160.5c10.27,2.56,20.95,4.07,30.74,7.88,41.4,16.12,66.6,46.5,74.84,90,9.05,47.76-13.91,96.83-55.66,121.57-48.3,28.63-108.51,20.08-147-20.87-52.62-56-37.6-148.08,30.18-184.36a112.87,112.87,0,0,1,42.54-13.35,20.15,20.15,0,0,0,3.32-.89ZM291.12,278.36c-.86,49.24,40.14,91.26,89.91,92.13A91.87,91.87,0,0,0,474.55,280c1-50.49-39.5-92.45-90.92-93.06A91.47,91.47,0,0,0,291.12,278.36Z" transform="translate(-41.51 -160.5)"/>
  <path class="cls-1" d="M258,672.49H109.59c-24.56,0-41.84-16.47-41.93-41q-.33-90.45,0-180.92c.09-24.37,17.52-40.7,42.8-40.76,44.81-.1,89.63,0,134.44,0H404.86c14.17,0,26.5,4,35.47,15.79a39.08,39.08,0,0,1,8.12,24.14q.14,91.45,0,182.92c-.06,22.87-17.63,39.88-40.5,39.89q-75,0-149.93,0Zm.48-236.16H111.07c-12.54,0-17,4.5-17,17.18q0,61,0,122c0,18.66,0,37.32.11,56,.06,9.61,5.31,14.71,14.87,14.84,1.67,0,3.34,0,5,0h289.9c13.77,0,18.31-4.46,18.32-18.08q0-87,0-173.94c0-13.52-4.36-17.93-17.84-17.94Z" transform="translate(-41.51 -160.5)"/>
  <path class="cls-1" d="M133.48,213.06c50.89.2,92.32,41.79,91.94,92.31s-42,91.73-92.35,91.36a91.82,91.82,0,0,1-91.55-92.52C41.8,253.93,83.23,212.87,133.48,213.06Zm65.45,92.07c.18-35.87-28.94-65.43-64.71-65.66-36.77-.23-66.6,29.11-66.54,65.47.06,35.67,29.52,65.33,65.12,65.56A65.78,65.78,0,0,0,198.93,305.13Z" transform="translate(-41.51 -160.5)"/>
  <path class="cls-1" d="M468.46,619.37c4.15-7.19,8.38-14.49,12.87-22.26l45.61,26.18V459.22l-45.63,26.27c-4.35-7.53-8.63-14.92-13.12-22.67,2.17-1.32,4.12-2.55,6.11-3.7,19-11,38-22,57.06-32.93,12.16-7,22.11-1.21,22.12,12.75q.06,102.75,0,205.49c0,12.32-9.81,18.75-20.23,12.88-21.45-12.08-42.69-24.57-64-36.9C469,620.26,468.89,619.92,468.46,619.37Z" transform="translate(-41.51 -160.5)"/>
  <path class="cls-1" d="M382.13,304.79c-14.39-.43-25.88-12.32-25.58-26.45.31-15,12.55-26.38,27.76-25.83,13.57.5,25,12.62,24.82,26.23A26.21,26.21,0,0,1,382.13,304.79Z" transform="translate(-41.51 -160.5)"/>
  <path class="cls-1" d="M120.42,304.86a13.34,13.34,0,0,1,12.91-13.13c6.93-.07,13.34,6.47,13.19,13.49-.14,6.85-6.44,12.95-13.26,12.84A13.42,13.42,0,0,1,120.42,304.86Z" transform="translate(-41.51 -160.5)"/>
</svg>
