<svg id="Слой_1" data-name="Слой 1" xmlns="http://www.w3.org/2000/svg" viewBox="0 0 464.88 268.96">
  <defs>
    <style>
      .cls-1 {
        fill: #549045;
      }
    </style>
  </defs>
  <path class="cls-1" d="M924.09,514.85q101.24,0,202.46,0c17.62,0,29.86,11.91,29.42,28.28-.4,15-12.26,26.31-28.21,26.45-20.83.17-41.66.07-62.49.07H724.84c-2.34,0-4.67,0-7-.07-15.29-.65-26.63-12.38-26.63-27.52A26.74,26.74,0,0,1,718.13,515c36.66-.25,73.32-.12,110-.13Z" transform="translate(-691.21 -405.52)"/>
  <path class="cls-1" d="M989.23,460.18q-68.75,0-137.48,0c-15.44,0-27.14-10.39-28.35-24.71C822,419,834.16,405.69,851.1,405.6c27.82-.15,55.65-.05,83.48-.05q96.24,0,192.48,0c10.87,0,19.57,4,25.14,13.45a27.12,27.12,0,0,1-23.48,41.1c-36.5.29-73,.11-109.49.12h-30Z" transform="translate(-691.21 -405.52)"/>
  <path class="cls-1" d="M1042.17,619.78c28.65,0,57.3-.1,85.95,0,15.21.07,26.82,10.86,27.74,25.28,1.05,16.38-10.91,29.16-27.74,29.22-36.48.13-73,.06-109.44.07-21.15,0-42.31.23-63.46,0a27.13,27.13,0,0,1-25.39-36.8c4-10.92,13.83-17.67,26.39-17.72,24.32-.1,48.64,0,73,0Z" transform="translate(-691.21 -405.52)"/>
</svg>
